<svg xmlns="http://www.w3.org/2000/svg" width="885.201" height="708.317" viewBox="0 0 885.201 708.317">
  <path d="M148.558 708.135s-12.753-31.391 25.505-54.934zm-15.684-.571s-3.89-22.374-34-22.182zm442.684.571s-12.753-31.391 25.505-54.934zm-15.684-.571s-3.89-22.374-34-22.182z" fill="#f0f0f0"/>
  <circle cx="565.054" cy="394.031" r="110.853" fill="#f0f0f0"/>
  <path fill="#f0f0f0" d="M565.358 394.03h.305l5.482 314.287h-11.573l5.786-314.287z"/>
  <circle cx="803.054" cy="479.085" r="80.853" fill="#f0f0f0"/>
  <path fill="#f0f0f0" d="M803.276 479.085h.222l3.998 229.232h-8.441l4.221-229.232z"/>
  <path d="M355.328 479.907a10.664 10.664 0 0 0 9-13.652l30.734-22.168-18.409-6.992-26.364 22.123a10.721 10.721 0 0 0 5.04 20.689zm-22.532 217.446-9.759-.001-4.643-37.642h14.404l-.002 37.643z" fill="#ffb6b6"/>
  <path d="m335.285 706.813-31.468-.001v-.398a12.249 12.249 0 0 1 12.248-12.248h19.22z" fill="#2f2e41"/>
  <path fill="#ffb6b6" d="m258.253 697.353-9.759-.001-4.642-37.642h14.403l-.002 37.643z"/>
  <path d="m260.742 706.813-31.467-.001v-.398a12.249 12.249 0 0 1 12.248-12.248h19.22zm5.049-218.782-20.682 113.104-7.234 89.838 23.486-1.155 13.369-87.24 33.23-75.96 9.89 162.99 21.62.07 11.633-206.171-85.312 4.524z" fill="#2f2e41"/>
  <path d="m353.75 358.573-28.988-11.534-33.257 3.805-28.192 15.585s8.624 108.158-3.877 133.528c0 0 10.016 13.873 50.826 10.487 0 0 39.754-5.025 40.739-18.06s1.193-36.737 1.193-36.737l13.8-47.551z" fill="#6c63ff"/>
  <path d="m274.644 368.511-11.331-2.082s-12.058 5.287-11.934 21.04-21.301 68.571 4.332 70.786 18.933-37.454 18.933-37.454zm69.912-3.227 9.194-6.71s14.038 3.17 19.23 14.47c0 0 57.566 41.75 41.732 57.584s-48.11 35.322-48.11 35.322l-11.95-13.531 29.649-26.86-24.323-22.158z" fill="#6c63ff"/>
  <path d="M329.856 317.051a23.8 23.8 0 0 1-47.6 0v-.913a23.8 23.8 0 0 1 47.581.913z" fill="#ffb6b6"/>
  <path d="M309.674 313.215c1.522-.25 3.172-.487 4.537.213 2.965 1.516 2.283 5.816 3.903 8.654.64 1.126 1.675 2.046 2.101 3.264s.165 2.74.835 3.916c.968 1.699 3.593 1.949 5.316.938a8.455 8.455 0 0 0 3.337-4.708c.573-1.62 1.054-3.41 2.436-4.47a5.164 5.164 0 0 0 1.334-1.09 3.289 3.289 0 0 0 .317-1.863c0-4.117-.64-7.308.292-11.297 1.492-6.431 2.856-9.61-1.87-14.379a16.351 16.351 0 0 0-8.903-4.555c-3.045-.5-7.527 3.752-10.609 3.654-7.837-.31-14.451-7.57-21.923-5.225a15.42 15.42 0 0 0-8.051 5.926c-3.654 5.383-3.325 7.466-2.796 13.89a2.375 2.375 0 0 0 .408 1.37c.274.33.719.506.987.841a2.077 2.077 0 0 1 .304 1.498 10.078 10.078 0 0 1-.724 3.045 1.254 1.254 0 0 0-.11 1.097 1.108 1.108 0 0 0 .61.414c3.044 1.096 6.333-1.017 9.59-.963s6.353 2.235 9.714 1.76c2.966-.456 5.974-1.437 8.965-1.93z" fill="#2f2e41"/>
  <path d="M309.516 445.525a2.839 2.839 0 0 1-.63.162l-26.426 3.689a2.844 2.844 0 0 1-3.062-1.804l-22.747-59.191a2.856 2.856 0 0 1 2.044-3.813l24.852-5.546a2.27 2.27 0 0 0 .552-.201l24.172-12.638a2.83 2.83 0 0 1 .587-.23l26.602-7.09a2.85 2.85 0 0 1 3.402 1.734l19.834 51.611a2.842 2.842 0 0 1-.375 2.73l-6.86 9.212a2.852 2.852 0 0 1-1.266.96l-14.99 5.762a2.255 2.255 0 0 0-.312.148l-24.98 14.317a2.856 2.856 0 0 1-.397.188z" fill="#fff"/>
  <path d="m321.811 366.753-3.378.9-8.952 2.388-.016.004-12.255 6.408-4.549 2.379h-.002l-6.83 3.572-.188.042-7.096 1.582-3.43.767-13.988 3.122 21.96 57.14 14.414-2.011 3.535-.494 7.533-1.053.087-.011 24.207-13.874 14.728-5.66 6.725-9.03-19.116-49.74z" fill="#e4e4e4"/>
  <path fill="#fff" d="m265.527 399.365 72.824-27.987 1.246 3.245-72.823 27.987zm4.157 10.817 72.824-27.987 1.247 3.245-72.824 27.987zm8.397 21.85 72.824-27.987 1.247 3.245-72.824 27.987z"/>
  <path fill="#fff" d="m321.811 366.753 21.802 56.73-3.245 1.247-21.935-57.076 3.378-.901zm-24.601 9.7-4.477 12.457-1.552 4.32-3.621 10.082-.776 2.155-.777 2.166-1.022 2.843-7.339 20.425-1.908-4.965 5.984-16.656 1.354-3.771.198-.55 1.601-4.459 2.02-5.622 1.553-4.322 4.211-11.723.002-.001 4.549-2.379z"/>
  <path fill="#fff" d="m278.545 384.028 22.49 58.524-3.534.494-22.386-58.251 3.43-.767z"/>
  <circle cx="273.731" cy="429.715" r="10.353" fill="#ffb6b6"/>
  <circle cx="701.225" cy="183.976" r="183.976" fill="#e4e4e4"/>
  <path d="M994.466 156.936A183.99 183.99 0 0 1 687.91 351.651a183.992 183.992 0 1 0 306.557-194.715z" transform="translate(-157.4 -95.842)" opacity=".1" style="isolation:isolate"/>
  <path fill="#e4e4e4" d="M700.72 183.975h-.506l-9.098 521.602h19.207l-9.603-521.602z"/>
  <path d="M835 707.802H1a1 1 0 0 1 0-2h834a1 1 0 0 1 0 2z" fill="#cacaca"/>
</svg>
